<svg width="13" height="9" viewBox="0 0 13 9" fill="none" xmlns="http://www.w3.org/2000/svg">
<path d="M1.40522 1.524V4.32H4.45322V5.22H1.40522V8.1H4.81322V9H0.313219V0.624H4.81322V1.524H1.40522ZM12.1776 3.084C12.1776 3.78 11.9376 4.36 11.4576 4.824C10.9856 5.28 10.2616 5.508 9.28556 5.508H7.67756V9H6.58556V0.636H9.28556C10.2296 0.636 10.9456 0.864 11.4336 1.32C11.9296 1.776 12.1776 2.364 12.1776 3.084ZM9.28556 4.608C9.89356 4.608 10.3416 4.476 10.6296 4.212C10.9176 3.948 11.0616 3.572 11.0616 3.084C11.0616 2.052 10.4696 1.536 9.28556 1.536H7.67756V4.608H9.28556Z" fill="black" fill-opacity="0.88"/>
</svg>
