<svg width="220" height="932" viewBox="0 0 220 932" fill="none" xmlns="http://www.w3.org/2000/svg">
<path d="M43.0582 79.1868L37.9259 57.6472M43.0582 79.1868L41.3473 104.316M43.0582 79.1868L47.486 59.4422M43.0582 79.1868C33.2495 76.2992 30.2262 72.0163 31.0828 57.6472M37.9259 57.6472V48.6723M37.9259 57.6472L43.0582 70.212M37.9259 57.6472C42.7175 51.4396 44.8665 51.4447 47.486 59.4422M37.9259 48.6723C39.8727 46.0182 41.4646 44.5232 43.0582 44.1972M37.9259 48.6723C34.1016 36.9228 36.0475 33.3193 44.7689 30.7227M51.6119 95.3414L41.3474 106.111L41.3473 131.241M51.6119 95.3414C58.0411 99.7274 60.4921 95.6154 63.5872 80.9817C52.1246 83.654 48.1155 86.1981 51.6119 95.3414ZM41.3474 95.3414L36.2151 93.5465M36.2151 93.5465C27.9885 99.1084 25.0972 95.1817 20.8183 84.5716C33.1489 85.7794 36.8084 87.6397 36.2151 93.5465ZM41.3473 131.241L32.7936 124.061M41.3473 131.241C42.1167 134.354 42.6767 137.056 43.0582 139.567M32.7936 124.061C24.3685 133.307 19.5045 134.255 10.5538 127.651C19.0482 124.583 21.5307 122.601 22.5291 118.676C20.9958 117.75 20.0215 116.66 19.4678 115.086M32.7936 124.061C34.4375 114.16 31.0597 110.388 19.1076 106.111C18.7398 110.317 18.766 113.091 19.4678 115.086M19.4678 115.086C13.0644 118.121 9.89383 118.435 5.42154 115.086M43.0582 158.165C43.8502 150.885 44.0078 145.818 43.0582 139.567M43.0582 158.165L43.0582 172.525M43.0582 158.165L34.5044 152.78M43.0582 139.567C46.1649 138.086 48.321 136.556 49.9012 134.248M49.9012 134.248C51.5042 131.906 52.5143 128.764 53.3227 124.061L60.1755 114.444M49.9012 134.248C59.8739 132.413 64.3961 127.531 70.4303 111.496C65.4198 110.084 61.8765 116.881 60.1657 115.086M49.9012 134.248C44.7837 123.204 53.3227 102.521 55.0335 104.316C56.7442 106.111 58.455 113.291 60.1657 115.086M60.1657 115.086C60.1681 114.869 60.1714 114.655 60.1755 114.444M67.0087 97.1364C61.7563 102.385 60.3325 106.332 60.1755 114.444M43.0582 172.525C46.3718 165.675 48.2403 163.115 51.6119 163.55M43.0582 172.525V188.68M51.6119 163.55C48.806 153.894 51.1014 148.985 58.4903 140.66M51.6119 163.55C59.2492 162.699 62.0457 160.538 63.5872 152.78M49.9012 165.345C61.1485 170.354 66.0988 169.766 72.141 161.755C69.1998 154.251 67.3118 152.465 63.5872 152.78M63.5872 152.78C66.2865 144.796 68.1191 143.216 72.141 145.6M63.5872 152.78C59.938 152.071 59.1286 148.575 58.4903 140.66M58.455 140.216C58.4667 140.365 58.4785 140.513 58.4903 140.66M34.5044 152.78C33.7036 137.26 27.6997 138.585 17.3968 140.216C4.49908 143.522 2.31474 145.04 3.71079 147.395M34.5044 152.78C30.5912 160.425 25.4277 161.695 12.2646 159.96C13.6265 151.113 16.1899 149.307 22.5291 149.19C25.4346 146.349 24.1494 144.464 17.3968 140.66M43.0582 188.68C42.5869 187.441 38.6304 181.457 36.6253 181.409M43.0582 188.68L43.8728 206.629M36.2151 181.5C36.3397 181.434 36.4772 181.405 36.6253 181.409M36.6253 181.409C32.3462 170.842 28.0465 168.273 17.3968 168.935C18.9574 176.79 21.1735 179.564 27.6613 181.384M36.6253 181.409C34.3453 189.096 29.5282 190.047 16.391 187.047M15.686 186.885C15.9237 186.94 16.1586 186.994 16.391 187.047M16.391 187.047C15.0478 182.92 17.7838 181.455 27.6613 181.384M34.5044 181.5C31.9185 181.412 29.6458 181.37 27.6613 181.384M19.1076 174.32C10.1297 174.592 7.43447 175.745 7.13227 179.705M44.7689 226.374L44.4121 218.513M44.7689 226.374C50.2358 225.397 51.2134 222.904 49.9012 215.604M44.7689 226.374L46.379 240.734M44.4121 218.513L36.2151 213.809M44.4121 218.513L43.8728 206.629M36.2151 213.809C35.8389 202.748 31.4366 199.403 17.3968 197.654C9.83654 205.133 9.11984 207.926 19.1076 208.424C18.8784 208.443 18.6522 208.462 18.4289 208.482M36.2151 213.809C29.4966 221.247 25.7474 223.078 19.1076 222.784C9.23847 220.328 10.2622 219.192 18.4289 217.399C28.0328 213.53 28.4692 211.56 18.4289 208.482M2 213.809C2.61762 210.797 5.92404 209.555 18.4289 208.482M48.1904 256.888L46.379 240.734M48.1904 256.888C41.8783 257.165 40.2238 255.369 39.6366 249.708M48.1904 256.888C48.1904 256.888 51.3238 269.217 52.2898 276.633M46.379 240.734L57.984 230.384M58.4549 229.964C54.854 225.758 55.2894 223.4 58.4549 219.194C73.6233 209.955 77.0187 208.647 75.5625 212.014C74.4847 216.907 76.3236 220.44 84.1163 228.169M58.4549 229.964C67.0281 241.196 71.5036 243.77 78.984 242.528C82.1359 241.022 80.6948 237.144 78.984 235.349C77.2732 233.554 86.1942 236.392 84.1163 228.169M58.4549 229.964L57.984 230.384M84.1163 228.169C68.9929 226.381 63.7202 227.11 57.984 230.384M39.6366 249.708C33.0248 234.42 27.8694 231.333 15.686 237.144C15.518 243.878 17.5924 246.332 25.6796 247.863M39.6366 249.708C38.6436 256.056 35.1645 259.234 22.5291 264.068C22.5291 264.068 12.2645 260.478 22.5291 255.093C32.7936 249.708 17.3968 255.093 17.3968 255.093V249.665M25.9506 247.913C25.8595 247.897 25.7692 247.88 25.6796 247.863M25.6796 247.863C22.4071 248.462 19.6729 249.055 17.3968 249.665M7.13227 260.478C6.22792 255.366 7.34769 252.359 17.3968 249.665M43.8728 206.629C45.1791 199.12 47.0787 196.526 53.3227 195.859M53.3227 195.859C64.3745 205.536 69.5958 205.366 77.2733 195.859L73.8517 188.68M53.3227 195.859C52.735 194.617 52.3483 193.436 52.1986 192.27M73.8517 188.68C86.0253 187.157 87.5138 188.385 85.827 192.27M73.8517 188.68C73.8633 188.483 73.8742 188.289 73.8847 188.097M52.1986 192.27C51.5095 186.901 55.843 181.845 68.7195 172.525C73.5563 174.774 74.3966 178.675 73.8847 188.097M52.1986 192.27C64.2662 193.137 68.9716 192.18 73.8847 188.097M51.6119 282.018C48.1904 280.223 43.0581 271.248 43.0581 271.248M51.6119 282.018C52.7182 282.598 52.7514 280.176 52.2898 276.633M51.6119 282.018L53.3227 290.993M52.2898 276.633L60.1657 265.863M60.1657 265.863L67.0087 273.043C67.0087 273.043 78.984 269.453 80.6948 264.068C82.4055 258.683 75.5625 262.273 68.7195 264.068C61.8764 265.863 75.5625 255.093 75.5625 255.093M60.1657 265.863C56.0104 262.185 55.5565 259.568 60.1657 253.298M60.1657 265.863C63.4966 251.196 66.1906 247.663 72.141 247.913L75.5625 255.093M75.5625 255.093C77.0209 256.024 78.8376 256.368 82.4055 255.904M53.3227 290.993L55.0334 299.967C55.0334 299.967 57.1957 306.774 58.2454 312.532M53.3227 290.993H46.379M46.379 290.993C45.882 289.324 45.3528 287.877 44.7689 286.644M46.379 290.993L34.5044 305.352C27.5314 306.517 27.1112 302.764 30.3861 290.993M25.9506 294.582L24.2398 285.608C36.0113 279.545 41.3352 279.392 44.7689 286.644M25.9506 294.582L17.3968 307.147M25.9506 294.582C27.5497 293.156 29.0007 291.972 30.3861 290.993M44.7689 286.644C38.7507 286.775 34.9198 287.788 30.3861 290.993M58.4549 319.712C56.7442 323.302 49.9012 310.737 49.9012 310.737M58.4549 319.712C59.0553 318.452 58.8129 315.645 58.2454 312.532M58.4549 319.712L59.5077 334.072M58.2454 312.532L63.5872 305.352M63.5872 305.352C66.2898 290.771 69.7026 285.739 78.984 282.018M63.5872 305.352C82.0253 308.491 87.4691 307.054 87.5378 298.172L84.1163 290.993M63.5872 305.352C72.5157 301.561 77.3297 299.052 84.1163 290.993M78.984 282.018C84.6648 284.398 84.8221 286.659 84.1163 290.993M78.984 282.018C73.3127 277.874 71.6826 275.83 77.452 273.741C90.0131 272.059 93.9303 274.648 94.3808 286.644M84.1163 290.993C89.2802 294.154 91.6742 293.821 94.3808 286.644M48.1904 330.482L60.0341 341.252M48.1904 330.482C37.9668 317.237 32.3436 316.554 22.5291 328.687L27.6613 337.662M48.1904 330.482C38.9727 329.507 34.5221 331.218 27.6613 337.662M48.1904 330.482C46.4912 339.569 44.1597 343.013 37.9259 346.636C33.5156 341.974 31.348 340.241 27.6613 337.662M60.0341 341.252L60.1657 343.047L61.8764 373.561M60.0341 341.252L59.5077 334.072M27.6613 337.662C26.4013 349.48 25.2484 352.826 22.5291 353.816M61.8764 373.561C49.7344 365.017 47.1715 360.748 48.1904 353.816M61.8764 373.561V411.255M61.8764 411.255C54.0731 403.899 50.8641 398.867 52.2898 384.331M61.8764 411.255L65.2918 427.637M25.9506 414.845C25.9506 420.533 30.6476 423.668 32.9009 427.637M32.9009 427.637L39.6366 420.23C46.446 430.029 45.0585 433.444 39.193 438.18M32.9009 427.637L25.9506 429.205C29.2962 438.359 32.515 439.339 39.193 438.18M39.193 438.18C39.3407 438.414 39.4885 438.648 39.6366 438.881M39.6366 438.881L34.5044 445.36C33.923 450.219 37.0313 450.677 46.439 448.949M39.6366 438.881C50.5875 436.107 53.1276 437.461 46.439 448.949M46.439 448.949C55.6885 445.156 57.0694 448.543 52.7299 457.269M46.439 448.949C40.1634 457.626 41.1096 459.718 52.7299 457.269M52.7299 457.269C53.1474 457.795 53.5697 458.323 53.997 458.852M53.997 458.852C42.7732 466.956 45.3347 468.547 61.3382 467.572M53.997 458.852C61.3913 452.876 62.9653 456.05 60.1657 466.224C60.5523 466.671 60.9431 467.12 61.3382 467.572M61.3382 467.572C64.6115 471.317 70.4302 488.439 72.141 479.464C72.2617 478.83 72.374 478.233 72.4783 477.669M72.4783 477.669C73.8517 470.245 73.8517 468.694 73.8517 468.694L65.2918 427.637M72.4783 477.669L80.6948 508.183L82.4055 529.723M82.4055 529.723L84.1163 551.262L85.2348 581.777M82.4055 529.723L84.1163 484.849M84.1163 484.849L86.6824 447.154M84.1163 484.849L91.8147 475.536M105.433 441.77C117.486 436.928 116.44 432.579 109.778 423.82C98.759 427.267 97.7554 431.192 105.433 441.77ZM105.433 441.77C116.209 449.213 117.165 452.249 102.473 453.997M105.433 441.77C92.8745 443.906 92.6868 446.689 102.473 453.997M102.473 453.997L99.5131 466.224L91.8147 475.536M102.473 453.997C113.296 460.652 114.011 463.348 99.5131 465.104C97.9226 463.484 96.7236 462.038 95.8834 460.643M43.0582 44.1972L44.7689 30.7227M43.0582 44.1972C44.6489 43.8718 46.2414 44.7114 48.1904 46.7258M44.7689 30.7227L51.6119 23.5429M44.7689 30.7227C39.1717 26.9615 37.6086 23.6832 46.4796 9.18316C52.1741 12.0693 53.3568 15.167 51.6119 23.5429M51.6119 23.5429C53.1339 34.7768 52.2049 39.7154 48.1904 46.7258M48.1904 46.7258C48.7307 47.2843 49.2985 47.9331 49.9012 48.6723L47.486 59.4422M59.5077 334.072C63.4836 333.798 65.0176 332.904 65.298 328.687M65.2918 427.637C57.539 418.012 55.0808 417.085 52.7299 420.23C53.2262 425.848 52.8387 428.999 65.2918 434.59C63.9641 454.82 65.1098 464.614 70.4302 479.464M85.2348 581.777C91.1323 575.468 94.5838 571.776 95.8834 562.032M85.2348 581.777C85.2348 581.777 84.3206 586.417 84.16 590.752M99.5131 505.757C90.9593 508.183 98.7041 518.637 98.7041 518.637C109.256 521.829 107.625 524.895 97.8952 531.518M96.8807 547.673L96.0916 560.237C96.0297 560.858 95.9603 561.456 95.8834 562.032M96.8807 547.673L104.645 544.083M96.8807 547.673C96.5368 547.362 96.2046 547.073 95.8834 546.806M104.645 544.083C102.791 559.475 101.205 563.426 95.8834 562.032M104.645 544.083C111.01 536.67 102.11 535.93 97.8952 531.518M94.3808 560.237C90.1842 562.641 88.4311 560.836 85.827 554.852C87.9747 544.212 90.2168 542.093 95.8834 546.806M95.8834 546.806C96.1581 545.866 96.6226 547.681 96.8807 546.806C88.0383 537.017 88.6868 531.866 97.8023 531.518M97.8952 531.518C97.8642 531.519 97.8332 531.517 97.8023 531.518M98.7041 519.27C88.3313 519.277 89.0941 522.416 97.8023 531.518M89.2485 409.46L86.6824 447.154M89.2485 409.46C78.4082 403.47 73.6981 398.187 79.4568 393.306M89.2485 409.46L91.0251 393.306M86.6824 447.154C80.2509 444.657 79.1066 442.686 80.6948 438.18M89.2485 429.205C93.7865 427.643 95.8021 425.603 97.8023 418.435M72.141 341.252C73.8068 342.761 69.4422 351.567 72.7215 358.417M72.7215 358.417C74.4986 351.484 75.8766 349.067 80.6948 353.816C86.3108 349.144 83.1249 360.373 75.5625 371.766M72.7215 358.417C65.2631 361.441 64.3568 357.719 67.0087 352.021M72.7215 358.417C73.1493 365.579 73.8163 371.719 74.7999 377.151M72.141 364.586C66.9537 363.751 67.3594 365.811 68.7195 369.971C69.5163 379.406 71.6958 378.257 75.0169 378.311M75.0169 378.311C74.9429 377.928 74.8706 377.541 74.7999 377.151M75.0169 378.311C75.6856 381.774 76.4902 384.949 77.452 387.921M74.7999 377.151C74.7999 377.151 77.2733 368.176 80.6948 369.971C84.1163 371.766 82.2688 389.437 77.452 387.921M77.452 387.921C78.0564 389.789 78.7229 391.576 79.4568 393.306M75.5625 382.536C71.1458 382.088 69.2198 382.099 70.4302 384.331C69.9432 393.673 71.3782 396.424 79.4568 393.306M94.3808 362.791L99.5131 331.379M94.3808 362.791C98.1196 361.387 101.348 359.892 104.178 358.132M94.3808 362.791L91.0251 393.306M121.415 332.277C122.11 330.058 122.789 327.671 123.464 325.097C119.73 316.94 117.895 317.719 114.91 325.097L114.226 348.431M121.415 332.277H126.885C124.515 343.429 122.141 347.822 118.694 349.419M121.415 332.277C119.284 339.073 117.001 344.285 114.226 348.431M112.943 350.226C113.383 349.651 113.81 349.053 114.226 348.431M112.943 350.226C111.954 351.522 110.903 352.704 109.778 353.794M112.943 350.226C115.178 350.305 117.057 350.177 118.694 349.419M114.226 334.072C111.415 336.796 109.474 339.096 108.326 341.252C106.165 345.31 106.816 348.863 109.778 353.794M109.778 353.794C108.093 355.425 106.241 356.849 104.178 358.132M94.3808 286.644C101.473 288.175 103.51 291.343 104.645 299.967L99.5131 331.379M104.645 301.762C106.605 295.03 107.801 289.808 108.592 283.813M109.778 269.453C109.497 275.12 109.142 279.653 108.592 283.813M109.778 269.453L102.935 260.478M109.778 269.453C110.814 265.961 111.614 262.807 112.284 259.411M108.592 283.813C111.795 280.598 113.815 280.007 118.331 283.813C118.401 283.997 118.47 284.178 118.539 284.356M138.86 282.018C146.868 286.443 148.832 288.807 147.414 292.788M138.86 282.018C139.586 275.855 139.549 271.68 138.181 269.453M138.86 282.018C138.874 282.642 138.877 283.24 138.868 283.813M138.181 269.453C136.297 266.386 131.886 267.017 123.464 271.248C121.576 272.79 120.192 274.14 119.275 275.529M138.181 269.453C134.573 273.362 132.608 276.161 132.744 278.428M138.868 283.813C138.735 292.551 135.952 295.51 128.596 298.172C124.217 295.745 121.908 293.117 118.539 284.356M138.868 283.813C134.79 282.167 132.869 280.525 132.744 278.428M118.539 284.356C117.498 280.485 117.678 277.948 119.275 275.529M132.744 278.428C123.493 279.383 121.118 278.448 119.275 275.529M102.935 260.478C102.416 247.634 100.831 240.969 96.4643 239.829M102.935 260.478L94.3808 253.298M102.935 260.478C93.2721 267.396 88.8253 266.17 82.4055 255.904M84.1163 244.324C88.7326 241.282 92.2446 239.692 94.912 239.652M96.4643 239.829C92.5627 243.755 91.2574 246.338 94.3808 253.298M96.4643 239.829C103.681 239.546 106.278 238.147 106.356 231.759M96.4643 239.829C95.9816 239.703 95.4649 239.644 94.912 239.652M94.3808 253.298C88.9303 254.713 85.1499 255.548 82.4055 255.904M114.91 238.939C114.087 247.953 113.353 253.991 112.284 259.411M114.91 238.939C113.255 236.104 111.97 234.26 110.223 233.119M114.91 238.939C116.354 235.903 117.612 233.568 118.933 231.759M112.284 259.411L123.464 251.503M123.464 251.503C134.706 262.934 138.915 260.562 143.993 246.118M123.464 251.503C128.181 245.564 132.043 243.649 143.993 246.118M123.464 251.503C116.85 247.093 119.285 242.8 135.439 231.759C135.466 231.937 135.494 232.113 135.521 232.286M143.993 246.118C141.307 244.811 139.491 243.372 138.181 241.154M138.181 241.154C142.506 236.632 145.83 235.783 154.257 238.939M138.181 241.154C136.948 239.068 136.163 236.292 135.521 232.286M106.356 231.759L97.8023 224.579C97.6896 224.728 97.5772 224.872 97.4645 225.012M106.356 231.759C107.937 231.997 109.165 232.429 110.223 233.119M94.912 239.652L87.5378 229.964C92.8844 228.916 95.2119 227.81 97.4645 225.012M110.223 233.119L109.778 222.784C107.459 217.288 104.93 214.513 97.8023 210.219M97.4645 225.012C96.7529 223.849 96.3541 222.592 96.2297 220.989M97.4645 210.219C96.4965 215.236 96.038 218.521 96.2297 220.989M85.827 215.604C86.678 218.365 88.0587 219.728 96.2297 220.989M142.282 217.399C136.642 204.899 128.854 206.816 126.885 226.374C126.661 226.432 126.442 226.493 126.227 226.556M142.282 217.399C148.539 216.532 151.487 215.609 154.257 212.014M142.282 217.399C138.435 224.627 136.607 228.293 135.521 232.286M135.521 232.286C141.931 231.067 144.455 229.596 145.703 224.579M126.227 226.556C128.962 229.321 131.801 228.768 138.86 224.579M126.227 226.556C123.076 227.49 120.932 229.022 118.933 231.759M118.933 231.759L123.464 208.424M123.464 208.424L116.621 199.449M123.464 208.424L125.174 192.27M116.621 199.449C115.702 198.088 115.069 196.908 114.694 195.859M116.621 199.449C111.177 204.348 106.92 203.99 97.8023 199.449C95.7167 192.723 99.3703 191.538 110.223 191.75M125.174 192.27L120.042 186.885C118.686 187.766 117.532 188.571 116.621 189.375M125.174 192.27C130.869 185.093 134.239 183.062 140.571 183.295M116.621 189.375C115.903 180.458 114.782 177.115 110.223 177.031C109.164 184.567 109.128 188.98 110.223 191.75M116.621 189.375C114.514 191.234 113.702 193.088 114.694 195.859M114.694 195.859C112.526 195.002 111.051 193.846 110.223 191.75M110.223 191.75C103.615 185.037 101.174 181.224 99.5131 174.32M140.571 183.295C141.957 187.768 141.486 190.114 138.86 194.065M140.571 183.295C148.613 181.681 153.11 183.094 161.1 190.475M161.1 190.475C153.541 193.326 150.008 195.534 146.078 200.741M161.1 190.475C163.535 194.021 164.42 196.166 163.698 200.741M161.1 190.475L167.943 179.705C146.815 169.841 141.749 170.97 143.993 185.09C141.784 196.06 142.438 199.172 146.078 200.741M145.703 201.244C145.829 201.074 145.953 200.906 146.078 200.741M126.885 190.475L130.307 174.32M130.307 174.32C125.459 173.553 124.069 171.845 125.174 165.345M130.307 174.32L133.489 160.965M125.174 165.345C128.293 150.133 116.621 140.216 114.91 138.421C113.199 136.626 114.694 152.78 114.694 152.78M125.174 165.345C121.982 158.751 119.831 155.733 114.694 152.78M125.174 165.345C118.742 168.847 114.574 168.661 106.356 165.345C103.329 160.453 104.71 157.703 114.694 152.78M114.694 152.78C108.897 143.303 106.281 141.379 102.935 143.805M133.489 160.965L138.86 138.421L142.852 127.651M133.489 160.965L143.74 155.288M166.233 136.626C166.039 136.816 165.85 137.003 165.663 137.189M157.181 147.395C156.221 149.282 155.907 150.946 155.968 152.78C156.051 152.854 156.134 152.927 156.216 152.999M157.181 147.395C170.441 150.282 174.345 152.241 174.786 156.37M157.181 147.395C158.516 144.773 161.1 141.722 165.663 137.189M165.663 137.189C150.106 135.645 144.695 138.859 143.74 155.288M143.74 155.288C140.819 163.872 144.703 165.7 161.1 163.55C163.577 160.868 162.454 158.523 156.216 152.999M143.74 155.288C147.468 147.855 150.181 147.199 156.216 152.999M137.15 143.805C134.572 142.872 132.824 141.968 132.017 140.124M132.017 134.831C140.744 114.13 137.523 111.712 125.174 118.676M125.174 118.676C130.101 122.429 131.775 125.427 132.017 133.036C131.327 136.416 131.348 138.594 132.017 140.124M125.174 118.676C113.602 131.858 116.579 131.868 132.017 140.124M125.174 118.676C121.286 113.072 119.071 110.953 114.91 113.291M142.852 127.651L156.216 120.471M142.852 127.651L146.844 116.881M156.216 120.471C165.758 131.197 169.799 131.148 174.786 120.471C168.584 116.48 164.86 115.576 161.453 116.881M156.216 120.471C151.965 113.194 151.543 109.869 161.1 107.906M156.216 120.471C158.069 118.78 159.72 117.545 161.453 116.881M161.1 107.906C163.5 108.316 163.738 110.062 161.453 116.881M161.1 107.906C175.965 104.752 181.667 104.342 173.076 113.291M161.453 116.881L173.076 113.291M173.076 113.291C183.962 111.125 186.443 111.785 186.762 115.086M146.844 116.881L150.836 106.111L154.942 95.3415M146.844 116.881L142.852 105.198M142.852 105.198L140.571 104.316M142.852 105.198C149.518 104.863 150.106 100.055 143.993 80.9817C136.83 82.1309 133.643 83.2662 138.86 91.7515M140.571 104.316L132.017 106.111C126.502 92.5902 127.7 89.1533 138.86 91.7515M140.571 104.316L138.86 91.7515M154.942 95.3415L161.1 79.1868L165.663 72.0069M154.942 95.3415L176.497 98.9314C182.6 98.9531 184.628 96.828 185.051 88.1616C185.044 85.3246 184.056 84.6195 181.629 83.9597M154.942 95.3415C165.771 83.6003 171.919 80.7545 181.629 83.9597M183.34 84.5717C182.757 84.3481 182.187 84.1439 181.629 83.9597M157.679 84.5717C153.542 81.836 152.16 80.0673 154.942 75.5968M154.942 75.5968C146.678 73.4219 144.825 69.9596 149.125 57.6472C160.478 63.1956 161.846 67.1121 154.942 75.5968ZM166.233 64.8271L165.663 72.0069M166.233 64.8271C160.074 53.4705 161.853 50.9227 173.076 52.2623M166.233 64.8271L173.076 52.2623M165.663 72.0069C176.853 56.3502 182.544 52.4338 191.894 52.2623C192.352 63.6564 186.512 67.9873 165.663 72.0069ZM173.076 52.2623C178.765 47.884 180.038 44.7922 178.208 37.9026C177.99 37.9806 177.776 38.0585 177.567 38.1362M173.076 52.2623C167.481 44.4862 168.76 41.4077 177.567 38.1362M177.567 38.1362C171.255 32.3662 171.976 29.1656 183.34 23.5429M183.34 23.5429C185.683 33.0788 184.968 36.2629 178.208 36.1076M183.34 23.5429C181.544 12.1836 183.036 9.45902 190.183 10.9781M183.34 23.5429C189.467 22.8503 190.769 19.8557 190.183 10.9781M190.183 10.9781C189.73 3.49145 191.973 1.91688 198.737 2.0033C199.152 11.3621 197.61 13.8444 190.183 10.9781ZM95.8834 448.949C93.9291 453.881 93.7498 457.1 95.8834 460.643M91.8147 475.536C91.8147 475.536 92.67 463.309 90.9593 461.514C89.2485 459.719 95.8834 460.643 95.8834 460.643M99.5131 331.379C99.5131 331.379 96.0916 316.122 96.0916 314.327C96.0916 312.532 85.827 316.122 85.827 316.122C86.226 324.452 89.3046 327.757 99.5131 331.379ZM104.178 358.132C101.331 349.356 102.615 345.271 109.778 339.457M104.178 358.132C113.951 360.664 117.162 358.803 118.694 349.419M91.0251 393.306C99.7585 393.007 102.454 390.736 102.935 382.536M84.1163 639.216C84.1163 639.216 86.0651 624.221 86.7604 612.291M84.1163 639.216C77.228 634.917 74.9693 631.557 72.141 624.856M84.1163 639.216V662.55M84.1163 639.216C80.1692 622.406 80.3871 611.682 84.16 590.752M86.7604 612.291C87.1934 604.861 87.1402 598.62 85.827 597.932C84.3505 597.157 84.0381 594.042 84.16 590.752M86.7604 612.291C91.111 610.025 92.3867 608.046 92.67 603.316M72.141 624.856C69.0511 613.024 67.5607 609.978 65.1876 608.701M72.141 624.856C60.3907 620.739 58.7188 617.242 65.1876 608.701M53.5986 581.777C43.7222 578.977 43.8708 575.865 48.1904 569.212C54.9709 566.449 56.7431 568.234 53.5986 581.777ZM53.5986 581.777C45.5124 588.631 46.6064 591.371 59.0068 594.342M53.5986 581.777C64.7204 578.534 64.2613 582.77 59.0068 594.342M59.0068 594.342C44.4531 593.727 48.3175 597.792 65.1876 608.701M59.0068 594.342C64.8319 587.998 66.6558 589.493 65.1876 608.701M84.1163 685.885L82.4055 759.478M84.1163 685.885V684.09M84.1163 685.885C102.347 647.08 111.365 624.695 125.174 583.572C143.542 559.228 151.699 542.941 159.525 517.158M84.1163 685.885L105.855 664.831M84.1163 662.55C72.8786 660.724 71.2786 657.995 72.141 651.78M84.1163 662.55V684.09M82.4055 759.478L82.8128 741.529M82.4055 759.478C81.3323 773.552 80.7974 785.158 80.8317 795.378M84.1163 684.09L83.098 728.964M162.811 505.757C161.704 509.774 160.618 513.559 159.525 517.158M162.811 505.757H173.076M162.811 505.757C164.93 500.646 166.569 496.292 167.943 491.873M123.464 594.342L134.854 584.469M146.244 574.597C152.533 560.435 156.159 557.468 162.811 560.237C161.434 570.256 156.847 572.569 146.244 574.597ZM146.244 574.597C148.747 582.205 146.731 584.623 134.854 584.469M146.244 574.597C140.73 570.718 138.55 575.153 134.854 584.469M106.356 632.036L105.036 622.34M102.69 605.111C95.753 600.662 97.1322 598.369 101.224 594.342C105.885 596.074 106.312 598.371 102.69 605.111ZM102.69 605.111C97.4667 609.172 96.3487 611.42 104.073 615.269M102.69 605.111C108.119 605.847 108.23 608.194 104.073 615.269M104.073 615.269L104.157 615.881C97.2723 619.099 96.2237 620.633 105.036 622.34M104.073 615.269C111.036 615.669 110.195 617.594 105.036 622.34M159.525 517.158L149.125 501.003M149.125 501.003C143.36 482.563 139.051 484.753 130.307 501.003M149.125 501.003C141.588 518.553 137.474 518.054 130.307 501.003M149.125 501.003C142.312 499.168 138.23 499.039 130.307 501.003M174.786 505.757H173.931M173.076 505.757C174.786 488.439 209.001 488.439 202.158 497.413C199.962 500.294 199 503.174 198.592 505.757M173.076 505.757H173.931M173.931 505.757C174.932 516.392 193.605 515.363 197.026 515.363C199.35 515.363 197.728 511.224 198.592 505.757M173.931 505.757C177.345 502.796 181.316 502.116 198.592 505.757M167.943 491.873L161.1 483.054M167.943 491.873C168.994 488.495 169.889 485.079 170.725 481.259M161.1 483.054C161.838 450.411 157.636 448.059 143.993 465.104M161.1 483.054C154.568 486.086 150.795 486.072 143.993 484.849C137.156 478.001 143.993 472.284 149.125 472.284C154.257 472.284 143.094 466.128 143.993 465.104M143.993 465.104C137.182 464.151 134.403 464.766 132.017 468.694M170.725 481.259C171.535 477.561 172.289 473.484 173.076 468.694C174.026 465.866 174.909 463.191 175.734 460.643M170.725 481.259C174.949 477.717 177.335 476.83 181.629 477.669M181.629 477.669C188.24 458.17 205.589 454.493 203.869 468.694C203.684 470.22 203.463 471.604 203.196 472.852M181.629 477.669C195.585 484.12 200.975 483.218 203.196 472.852M190.183 481.259C193.021 474.152 195.937 472.438 203.196 472.852M202.158 475.874C209.349 476.28 211.38 478.458 212.423 484.849M175.734 460.643L173.931 457.08M175.734 460.643C176.918 456.985 177.98 453.591 178.943 450.382M170.725 450.744C172.469 429.644 163.103 423.456 155.968 434.59M170.725 450.744C166.96 450.746 163.761 450.636 161.1 450.382M170.725 450.744L173.931 457.08M170.725 450.744C165.227 440.362 161.974 437.147 155.968 434.59M155.968 434.59C148.025 444.998 148.856 449.214 161.1 450.382M155.968 434.59C150.927 429.89 148.278 428.876 143.993 431M161.1 450.382C160.261 453.712 161.076 455.422 173.931 457.08M178.943 450.382L187.489 444.316L193.605 439.975M178.943 450.382C181.49 441.889 183.338 434.704 184.892 427.41M193.605 439.975C188.393 431.172 190.563 426.799 205.58 420.23C210.961 422.389 214.294 424.468 215.696 427.41M193.605 439.975C193.604 440.189 193.605 440.4 193.607 440.608M193.607 440.608C193.734 453.783 198.272 453.682 214.134 439.975C216.555 434.251 217.116 430.389 215.696 427.41M193.607 440.608C193.298 435.108 214.134 431 215.696 427.41M184.892 427.41L178.49 420.533M184.892 427.41C185.759 423.338 186.535 419.232 187.29 414.845M178.208 420.23C159.274 425.606 155.924 423.5 164.522 409.46C164.572 409.368 164.623 409.277 164.673 409.186M178.208 420.23C176.952 393.767 173.709 392.803 164.673 409.186M178.208 420.23L178.49 420.533M164.673 409.186L178.49 420.533M164.673 409.186C154.684 402.171 151.273 402.091 147.414 405.87M187.29 414.845C187.686 412.541 188.077 410.16 188.472 407.665L189.196 403.108M187.29 414.845L195.315 411.255M195.315 411.255C212.116 417.16 216.52 415.487 215.844 404.075M195.315 411.255C201.889 387.324 206.347 386.366 214.766 402.28M195.315 411.255C200.495 405.174 207.291 409.186 214.766 402.28M215.696 404.075C215.38 403.455 215.07 402.857 214.766 402.28M189.196 403.108L180.238 391.91M189.196 403.108L191.894 386.126M180.238 391.91L179.919 391.511C162.039 402.416 160.302 397.976 164.522 380.741M180.238 391.91C184.851 369.397 162.811 364.586 162.811 369.971C162.811 375.356 164.522 380.741 164.522 380.741M180.238 391.91C174.91 380.756 171.472 378.236 164.522 380.741M164.522 380.741C155.545 378.649 152.898 379.017 150.836 382.536M191.894 386.126L193.605 375.356L194.208 368.176M191.894 386.126L200.161 379.187M214.766 365.139C206.06 355.804 203.248 360.353 200.448 378.946L200.161 379.187M214.766 365.427C220.628 379.714 218.924 383.815 206.322 380.888M200.161 379.187C202.449 379.894 204.5 380.465 206.322 380.888M206.322 380.888C210.837 377.364 212.96 374.79 214.134 366.381M198.737 314.327C189.066 296.406 191.308 294.693 199.98 296.718M198.737 314.327C207.448 298.215 207.11 295.008 200.145 296.377M198.737 314.327L198.677 315.045M194.208 368.176L186.762 360.996M194.208 368.176L195.418 353.794M186.762 360.996C186.685 342.566 183.701 338.608 173.076 343.047C175.942 359.998 178.863 364.213 186.762 360.996ZM196.171 344.842L189.196 339.457M196.171 344.842L195.418 353.794M196.171 344.842L197.076 334.072M189.196 339.457C189.39 323.669 187.026 318.821 180.238 314.327C176.68 335.834 178.794 341.074 189.196 339.457ZM195.418 353.794C203.052 334.487 207.298 327.077 214.766 325.097C215.84 343.142 211.425 349.287 195.418 353.794ZM197.076 334.072L210.712 317.917M197.076 334.072L197.378 330.482M210.712 317.917C208.401 306.861 209.074 302.002 214.766 296.377C215.258 314.493 214.416 319.266 210.712 317.917ZM201.223 279.109C189.178 271.848 191.346 269.278 202.158 265.863C208.185 269.336 208.738 272.035 201.223 279.109ZM201.223 279.109C190.357 283.745 188.973 287.361 199.98 296.718M201.223 279.109C208.173 276.607 207.794 280.591 200.145 296.377M199.98 296.718C200.036 296.604 200.091 296.49 200.145 296.377M198.677 315.045C190.648 315.48 189.381 318.127 197.378 330.482M198.677 315.045C203.657 313.916 203.203 317.515 197.378 330.482M122.608 653.575C119.745 643.774 123.425 641.437 138.86 642.806C136.15 652.613 133.046 655.668 122.608 653.575ZM122.608 653.575C116.638 645.123 114.498 644.941 114.482 658.96M122.608 653.575C131.092 658.39 131.466 660.07 114.482 658.96M114.482 658.96C108.149 650.898 106.816 653.511 106.356 664.345L105.855 664.831M114.482 658.96C120.037 666.331 116.817 666.86 105.855 664.831M84.1163 718.194C85.5751 709.491 87.7331 709.317 92.67 712.809C96.6195 712.146 94.6689 715.548 83.098 728.964M83.098 728.964L82.8128 741.529M82.8128 741.529C79.108 737.546 75.7563 733.712 72.6846 729.931M44.0384 679.567C29.9087 675.625 28.327 668.626 36.2151 658.96C47.4715 666.42 49.4921 670.909 44.0384 679.567ZM44.0384 679.567C35.2157 683.311 35.9562 688.578 51.553 696.655M44.0384 679.567C52.8685 678.196 53.5561 683.245 51.553 696.655M51.553 696.655C42.8294 700.388 41.6411 703.296 55.6703 704.661M51.553 696.655C56.5487 692.253 58.0554 692.66 55.6703 704.661M55.6703 704.661C41.7965 704.222 42.2719 707.586 62.7227 716.399M55.6703 704.661C62.1926 702.058 63.1258 705.793 62.7227 716.399M62.7227 716.399C66.4684 711.614 68.0241 715.567 70.4302 727.101M62.7227 716.399C57.6689 717.835 54.4886 719.259 53.818 720.675M70.4302 727.101C71.1649 728.042 71.916 728.985 72.6846 729.931M70.4302 727.101C59.7944 725.334 54.6814 723.564 53.818 721.784M60.1657 725.374C58.0826 730.087 57.1059 733.155 60.1657 733.446M72.6846 729.931C66.098 732.584 62.2211 733.641 60.1657 733.446M53.818 721.784C53.6389 721.415 53.6427 721.045 53.818 720.675M53.818 721.784C46.6178 726.328 44.7666 728.962 47.9775 730.759M60.1657 733.446C54.1061 732.705 50.0188 731.901 47.9775 730.759M53.818 720.675C49.7913 717.032 46.7323 714.631 44.0384 713.128M53.818 720.675C44.464 717.756 40.9478 717.768 37.7054 720.675M47.9775 730.759C45.1864 729.659 42.7438 728.628 40.6313 727.647M44.0384 713.128C40.6824 711.255 37.8929 710.774 34.5044 711.014C27.1393 717.571 27.7854 721.682 40.6313 727.647M44.0384 713.128C38.9228 714.355 36.5661 715.977 37.7054 720.675M40.6313 727.647C39.1065 724.761 38.1454 722.489 37.7054 720.675M80.8317 795.378C85.4759 786.935 89.5451 779.354 93.3319 772.043M80.8317 795.378C80.8885 812.303 82.5067 825.428 85.827 839.67M114.586 727.647C110.651 719.206 113.683 712.579 123.464 707.424C126.731 720.455 128.711 727.874 114.586 727.647ZM114.586 727.647C102.935 727.101 109.755 738.365 107.444 743.324M114.586 727.647C122.395 732.766 123.549 735.956 108.421 742.881M107.444 743.324C107.777 743.175 108.103 743.027 108.421 742.881M107.444 743.324C116.186 746.13 114.346 750.259 101.457 755.888M108.421 742.881C98.8305 741.336 97.4054 744.286 101.457 755.888M101.457 755.888C92.6835 752.179 90.3455 757.971 93.3319 772.043M101.457 755.888C106.098 765.651 104.409 769.22 93.3319 772.043M85.827 839.67C86.8154 843.91 87.9547 848.249 89.2485 852.816C89.8568 863.958 90.5553 873.282 91.481 881.536M85.827 839.67C83.0561 836.949 80.1542 833.801 77.2733 830.489M53.3227 799.625C53.3227 799.625 33.5126 785.727 41.3474 779.223C48.8684 778.484 53.3227 799.625 53.3227 799.625ZM53.3227 799.625C38.6662 799.648 39.3949 805.599 63.3908 813.327M53.3227 799.625C61.846 796.798 62.961 801.737 63.3908 813.327M63.3908 813.327C70.4302 813.327 68.8523 820.392 71.8864 824.097M63.3908 813.327C51.9085 820.337 54.9122 822.479 71.8864 824.097M71.8864 824.097C57.6397 826.836 47.7721 829.416 77.2733 830.489M71.8864 824.097L77.2733 830.489M102.935 930C96.867 913.538 93.5863 900.307 91.481 881.536M91.481 881.536L108.067 853.888M128.596 819.668C125.925 807.599 128.921 804.457 138.86 802.558C137.928 814.534 135.586 818.117 128.596 819.668ZM128.596 819.668C118.516 813.376 116.094 815.911 119.478 834.867M128.596 819.668C133.576 827.611 130.373 830.655 119.478 834.867M119.478 834.867C113.724 824.933 112.076 827.699 111.94 847.432M119.478 834.867C122.209 840.985 119.928 843.602 111.94 847.432M111.94 847.432C106.591 834.026 105.727 835.339 108.067 853.888M111.94 847.432C114.844 852.677 113.305 853.665 108.067 853.888M78.984 513.568C72.0884 501.733 69.4013 498.211 68.7195 502.798L65.2918 508.183C67.2911 514.404 70.3798 515.477 78.984 513.568Z" stroke="#DAE0E2" stroke-width="3" stroke-linecap="round"/>
</svg>
