<svg width="220" height="932" viewBox="0 0 220 932" fill="none" xmlns="http://www.w3.org/2000/svg">
<path d="M43.0582 79.153L41.3473 104.272M43.0582 79.153L47.486 59.4171M43.0582 79.153C33.2495 76.2668 30.2262 71.9857 31.0828 57.6228C30.8919 53.2252 34.023 59.2835 43.0582 79.153ZM43.0582 79.153C37.741 69.3826 36.1695 64.4836 37.9259 57.6228M37.9259 57.6228V48.6519M37.9259 57.6228C40.9444 60.305 42.8977 61.0826 47.486 59.4171M37.9259 48.6519C39.8727 45.999 41.4646 44.5046 43.0582 44.1788M37.9259 48.6519C34.1016 36.9075 36.0475 33.3056 44.7689 30.7102M51.6119 95.3006L41.3474 106.066L41.3473 131.184M51.6119 95.3006C58.0411 99.6847 60.4922 95.5745 63.5872 80.9472C52.1246 83.6183 48.1155 86.1613 51.6119 95.3006ZM41.3474 95.3006L36.2151 93.5065M36.2151 93.5065C23.5057 99.0368 19.9425 95.1072 20.8183 84.5356C33.1489 85.7428 36.8084 87.6023 36.2151 93.5065ZM41.3473 131.184L32.7936 124.008M41.3473 131.184C42.1167 134.296 42.6767 136.997 43.0582 139.507M32.7936 124.008C24.3685 133.249 19.5045 134.198 10.5538 127.596C19.0482 124.53 29.3721 113.242 22.5291 118.625C15.6861 124.007 20.0215 116.61 19.4678 115.037M32.7936 124.008C34.4375 114.111 31.0597 110.34 19.1076 106.066C18.7398 110.27 18.766 113.042 19.4678 115.037M19.4678 115.037C13.0644 118.07 9.89383 118.384 5.42154 115.037M43.0582 158.097C43.8502 150.82 44.0078 145.756 43.0582 139.507M43.0582 158.097L43.0582 172.45M43.0582 158.097L34.5044 152.714M43.0582 139.507C46.1649 138.027 48.321 136.497 49.9012 134.19M49.9012 134.19C51.5042 131.849 49.9012 124.008 53.3227 124.008C56.7442 124.008 60.1755 114.394 60.1755 114.394M49.9012 134.19C59.8739 132.356 64.3961 127.476 70.4303 111.448C65.4198 110.037 61.8765 116.831 60.1657 115.037M49.9012 134.19C44.7837 123.151 53.3227 102.477 55.0335 104.272C56.7442 106.066 58.455 113.242 60.1657 115.037M60.1657 115.037C60.1681 114.82 60.1714 114.606 60.1755 114.394M67.0088 97.0948C61.7564 102.342 60.3325 106.286 60.1755 114.394M43.0582 172.45C46.3718 165.603 48.2403 163.044 51.6119 163.479M43.0582 172.45V188.598M51.6119 163.479C48.806 153.828 51.1014 148.921 58.4903 140.599M51.6119 163.479C59.2492 162.629 62.0457 160.468 63.5872 152.714M49.9012 165.274C61.1485 170.28 66.0988 169.693 72.141 161.685C69.1998 154.185 67.3118 152.399 63.5872 152.714M63.5872 152.714C66.2865 144.734 68.1191 143.154 72.141 145.538M63.5872 152.714C59.938 152.005 59.1286 148.511 58.4903 140.599M58.455 140.155C58.4667 140.305 58.4785 140.453 58.4903 140.599M34.5044 152.714C33.7036 137.2 32.7936 152.714 17.3968 140.155C2.00007 127.596 29.3721 161.685 2 149.126M34.5044 152.714C17.9057 161.87 15.6388 162.793 12.2646 159.891C13.6265 151.048 16.1899 149.243 22.5291 149.126C25.4346 146.286 24.1494 144.401 17.3968 140.599M43.0582 188.598C42.587 187.359 38.6304 181.379 36.6253 181.33M43.0582 188.598L43.8728 206.54M36.2151 181.421C36.3397 181.356 36.4772 181.327 36.6253 181.33M36.6253 181.33C32.3462 170.768 28.0465 168.2 17.3968 168.862C18.9575 176.714 21.1735 179.486 27.6613 181.305M36.6253 181.33C34.3453 189.014 29.5282 189.965 16.391 186.967M15.686 186.804C15.9237 186.859 16.1586 186.914 16.391 186.967M16.391 186.967C15.0478 182.841 17.7838 181.376 27.6613 181.305M34.5044 181.421C31.9185 181.333 29.6458 181.291 27.6613 181.305M20.8183 179.627C11.8405 179.899 9.14523 179.257 8.84302 183.215M44.7689 226.276L44.4121 218.419M44.7689 226.276C50.2358 225.299 51.2134 222.807 49.9012 215.511M44.7689 226.276L46.379 240.629M44.4121 218.419L36.2151 213.717M44.4121 218.419L43.8728 206.54M36.2151 213.717C35.8389 202.66 31.4366 199.316 17.3968 197.569C9.83654 205.045 9.11984 207.836 19.1076 208.334C18.8784 208.353 18.6522 208.372 18.4289 208.391M36.2151 213.717C29.4966 221.151 25.7474 222.981 19.1076 222.687C9.23847 220.233 10.2622 219.097 18.4289 217.305C28.0328 213.438 28.4692 211.468 18.4289 208.391M5.42151 210.128C10.4524 212.674 1.90403 219.092 18.4289 208.391M48.1904 256.777L46.379 240.629M48.1904 256.777C41.8783 257.053 40.2238 255.258 39.6366 249.6M48.1904 256.777C48.1904 256.777 51.3238 269.1 52.2898 276.513M46.379 240.629L57.984 230.284M58.4549 229.864C54.854 225.66 55.2894 223.303 58.4549 219.099C73.6233 209.865 77.0187 208.557 75.5625 211.922C74.4847 216.813 76.3236 220.344 84.1163 228.07M58.4549 229.864C67.0281 241.091 71.5036 243.665 78.984 242.423C82.1359 240.917 80.6948 237.041 78.984 235.247C77.2733 233.452 86.1942 236.289 84.1163 228.07M58.4549 229.864L57.984 230.284M84.1163 228.07C68.9929 226.283 63.7202 227.011 57.984 230.284M39.6366 249.6C33.0248 234.318 27.8694 231.233 15.686 237.041C15.518 243.772 17.5924 246.225 25.6796 247.755M39.6366 249.6C38.6436 255.945 24.2398 263.95 22.5291 263.954C20.8183 263.957 25.9506 254.983 22.5291 254.983C19.1076 254.983 19.1076 253.185 17.3968 254.983C15.686 256.78 17.3968 249.557 17.3968 249.557M25.9506 247.806C25.8595 247.789 25.7692 247.772 25.6796 247.755M25.6796 247.755C22.4071 248.354 19.6729 248.947 17.3968 249.557M3.71076 260.362C2.80641 255.252 7.34769 252.249 17.3968 249.557M43.8728 206.54C45.1791 199.034 47.0787 196.441 53.3227 195.775M53.3227 195.775C64.3745 205.447 69.5958 205.277 77.2733 195.775L73.8517 188.598M53.3227 195.775C52.735 194.533 52.3483 193.352 52.1986 192.186M73.8517 188.598C86.0253 187.076 87.5138 188.304 85.827 192.186M73.8517 188.598C73.8633 188.402 73.8743 188.207 73.8847 188.016M52.1986 192.186C51.5095 186.82 55.843 181.766 68.7195 172.45C73.5563 174.698 74.3966 178.598 73.8847 188.016M52.1986 192.186C64.2662 193.053 68.9716 192.097 73.8847 188.016M51.6119 281.895C50.6904 278.994 45.402 270.093 43.0581 271.13M51.6119 281.895C52.5334 284.796 52.7514 280.055 52.2898 276.513M51.6119 281.895L53.3227 290.866M52.2898 276.513L60.1657 265.748M60.1657 265.748L67.0087 272.924C67.0087 272.924 78.984 269.336 80.6948 263.954C82.4055 258.571 75.5625 262.159 68.7195 263.954C61.8765 265.748 75.5625 254.983 75.5625 254.983M60.1657 265.748C56.0104 262.071 60.1657 238.835 65.298 244.218M60.1657 265.748C63.4966 251.088 66.1907 247.556 72.141 247.806C72.141 247.806 77.2733 247.806 75.5625 254.983M75.5625 254.983C80.6948 249.6 78.8376 256.257 82.4055 255.793M53.3227 290.866L55.0334 299.837C55.0334 299.837 57.1957 306.64 58.2455 312.396M53.3227 290.866H46.379M46.379 290.866C45.882 289.198 45.3528 287.752 44.7689 286.519M46.379 290.866C46.379 290.866 41.3474 301.635 34.5044 305.22C27.6613 308.805 24.0837 301.618 30.3861 290.866M25.9506 294.455C25.9506 294.455 22.5291 285.487 24.2398 285.484C25.9506 285.48 41.3352 279.271 44.7689 286.519M25.9506 294.455C18.2386 297.587 15.2666 300.133 13.9753 307.011M25.9506 294.455C27.5497 293.029 29.0007 291.845 30.3861 290.866M44.7689 286.519C38.7507 286.651 34.9198 287.663 30.3861 290.866M58.4549 319.573C56.7442 323.162 49.9012 310.602 49.9012 310.602M58.4549 319.573C59.0553 318.314 58.8129 315.508 58.2455 312.396M58.4549 319.573L59.5077 333.927M58.2455 312.396L63.5872 305.22M63.5872 305.22C66.2898 290.645 69.7026 285.615 78.984 281.895M63.5872 305.22C82.0253 308.357 87.4691 306.921 87.5378 298.043L84.1163 290.866M63.5872 305.22C72.5158 301.43 77.3298 298.922 84.1163 290.866M78.984 281.895C84.6648 284.275 84.8221 286.534 84.1163 290.866M78.984 281.895C73.3127 277.754 71.6826 275.71 77.452 273.622C90.0132 271.941 93.9303 274.529 94.3808 286.519M84.1163 290.866C89.2802 294.027 91.6742 293.693 94.3808 286.519M48.1904 330.338L60.0341 341.103M48.1904 330.338C37.9668 317.1 32.3436 316.416 22.5291 328.544L27.6613 337.515M48.1904 330.338C38.9727 329.363 34.5221 331.074 27.6613 337.515M48.1904 330.338C46.4912 339.422 44.1597 342.864 37.9259 346.486C33.5156 341.826 31.348 340.094 27.6613 337.515M60.0341 341.103L60.1657 342.897L61.8441 372.822M60.0341 341.103L59.5077 333.927M27.6613 337.515C26.4013 349.328 25.2484 341.907 22.5291 342.897M61.8765 373.399C54.6247 350.938 50.378 351.462 48.1904 353.663C45.3796 362.871 48.9464 366.562 61.8441 372.822M61.8765 373.399L61.8441 372.822M61.8765 373.399V384.164M61.8765 411.076C56.705 398.033 54.4914 391.848 53.997 382.369C56.2795 375.303 58.0602 376.265 61.8765 384.164M61.8765 411.076L65.2918 427.451M61.8765 411.076V384.164M73.8517 468.49C73.8517 468.49 73.8517 470.04 72.4783 477.461M73.8517 468.49L65.2918 427.451M73.8517 468.49C78.3424 464.803 80.1036 461.883 80.6948 453.799C75.2157 450.995 73.1728 451.39 72.141 457.07M27.6613 420.047C32.0819 422.011 32.5991 420.94 32.9009 427.451M32.9009 427.451L39.6366 420.047C46.446 429.842 45.0585 433.255 39.193 437.989M32.9009 427.451L25.9506 429.018C29.2962 438.168 32.515 439.148 39.193 437.989M39.193 437.989C39.3407 438.223 39.4885 438.457 39.6366 438.69M39.6366 438.69L34.5044 445.166C33.923 450.023 37.0313 450.481 46.439 448.754M39.6366 438.69C50.5875 435.917 53.1277 437.271 46.439 448.754M46.439 448.754C55.6885 444.962 57.0694 448.348 52.7299 457.07M46.439 448.754C40.1634 457.427 41.1096 459.518 52.7299 457.07M52.7299 457.07C53.1474 457.596 53.5697 458.124 53.997 458.653M53.997 458.653C42.7732 466.752 45.3347 468.343 61.3382 467.369M53.997 458.653C61.3913 452.679 62.9653 455.852 60.1657 466.021C60.5523 466.468 60.9431 466.917 61.3382 467.369M61.3382 467.369C64.6115 471.112 70.4302 488.226 72.141 479.255C72.2617 478.622 72.374 478.025 72.4783 477.461M72.4783 477.461L80.6948 507.962L82.4055 529.492M82.4055 529.492L84.1163 551.022L85.2349 581.523M82.4055 529.492L84.1163 484.638M84.1163 484.638L86.6824 446.96M84.1163 484.638L91.8147 475.329M105.433 441.577C117.486 436.737 116.44 432.391 109.778 423.636C98.759 427.081 97.7554 431.004 105.433 441.577ZM105.433 441.577C116.209 449.018 117.165 452.053 102.473 453.799M105.433 441.577C92.8745 443.713 92.6868 446.495 102.473 453.799M102.473 453.799L99.5131 466.021L91.8147 475.329M102.473 453.799C113.296 460.452 114.011 463.146 99.5131 464.902C97.9226 463.282 96.7237 461.837 95.8834 460.443M43.0582 44.1788C44.6489 43.8535 46.2414 44.6927 48.1904 46.7063M43.0582 44.1788L43.6985 39.1372L44.7689 30.7102M44.7689 30.7102L51.6119 23.5335M44.7689 30.7102C39.1717 26.9506 37.6086 23.6737 46.4796 9.18002C52.1741 12.0649 53.3568 15.1612 51.6119 23.5335M51.6119 23.5335C52.1454 27.4692 52.3777 30.6319 52.2816 33.3816C52.1036 38.4773 50.7978 42.155 48.1904 46.7063M48.1904 46.7063C48.7307 47.2645 49.2985 47.913 49.9012 48.6519L47.486 59.4171M59.5077 333.927C63.4836 333.653 65.0176 332.759 65.298 328.544M65.2918 427.451C57.539 417.83 57.8621 423.636 56.7442 425.43C55.6263 427.224 52.8387 428.812 65.2918 434.401M85.2349 581.523C91.1324 575.217 94.5838 571.527 95.8834 561.787M85.2349 581.523C85.2349 581.523 84.3206 586.162 84.16 590.494M85.2349 581.523C79.085 579.402 78.984 572.553 75.5625 568.964C72.141 565.376 73.194 567.164 72.141 566.297M96.8807 547.434L96.0916 559.993C96.0297 560.614 95.9603 561.211 95.8834 561.787M96.8807 547.434L104.645 543.846M96.8807 547.434C96.5368 547.123 96.2046 546.834 95.8834 546.567M104.645 543.846C102.791 559.231 101.205 563.181 95.8834 561.787M104.645 543.846C111.01 536.436 102.11 535.697 97.8952 531.286M94.3808 559.993C90.1842 562.396 89.2485 553.64 89.2485 553.64C89.2485 553.64 90.2168 541.857 95.8834 546.567M95.8834 546.567C96.1581 545.629 96.6226 547.443 96.8807 546.567C88.0383 536.784 88.6868 531.634 97.8023 531.286M97.8952 531.286C107.625 524.667 109.256 521.602 98.7042 518.412C98.7042 518.412 102.268 509.831 99.5131 505.537C96.7582 501.243 94.9438 500.274 90.9593 502.576C88.8218 507.585 91.5618 513.616 97.8952 518.412M97.8952 531.286C97.8642 531.287 97.8332 531.285 97.8023 531.286M98.7042 519.044C88.3313 519.051 89.0941 522.188 97.8023 531.286M86.6824 446.96C80.2509 444.464 79.1066 442.494 80.6948 437.989M86.6824 446.96L88.882 414.665M89.2485 429.018C92.6701 427.224 96.0916 427.224 94.3808 421.841M94.3808 362.633L99.5131 331.235M94.3808 362.633C98.1197 361.23 101.348 359.735 104.178 357.976M94.3808 362.633L91.0251 393.135M121.415 332.132C122.11 329.915 122.789 327.529 123.464 324.956C119.73 316.802 117.895 317.581 114.91 324.956L114.226 348.28M121.415 332.132C121.415 332.132 128.596 330.338 126.885 332.132C125.174 333.927 122.141 347.671 118.694 349.267M121.415 332.132C119.284 338.926 117.001 344.136 114.226 348.28M112.943 350.074C113.383 349.499 113.81 348.901 114.226 348.28M112.943 350.074C111.954 351.369 110.903 352.551 109.778 353.641M112.943 350.074C115.178 350.153 117.057 350.025 118.694 349.267M114.226 333.927C111.415 336.65 109.474 338.948 108.326 341.103C106.165 345.16 106.816 348.711 109.778 353.641M109.778 353.641C108.093 355.271 106.241 356.694 104.178 357.976M94.3808 286.519C101.473 288.05 103.51 291.217 104.645 299.837L99.5131 331.235M104.645 301.631C106.605 294.902 107.801 289.682 108.592 283.69M109.778 269.336C109.497 275.001 109.142 279.531 108.592 283.69M109.778 269.336L102.935 260.365M109.778 269.336C110.814 265.845 111.614 262.693 112.284 259.299M118.331 283.69C118.401 283.873 118.47 284.054 118.539 284.233M108.592 283.69L120.612 286.212M102.935 260.365C102.416 247.526 100.831 240.864 96.4643 239.725M102.935 260.365L94.3808 253.188M102.935 260.365C93.2721 267.28 88.8253 266.055 82.4055 255.793M84.1163 244.218C88.7326 241.177 92.2446 239.588 94.912 239.549M96.4643 239.725C92.5627 243.65 91.2574 246.232 94.3808 253.188M96.4643 239.725C103.681 239.442 106.278 238.044 106.356 231.658M96.4643 239.725C95.9816 239.599 95.4649 239.54 94.912 239.549M94.3808 253.188C88.9304 254.602 85.1499 255.437 82.4055 255.793M114.91 238.835C114.087 247.846 113.353 253.881 112.284 259.299M114.91 238.835C113.255 236.002 111.97 234.158 110.223 233.018M114.91 238.835C116.354 235.801 117.612 233.467 118.933 231.658M112.284 259.299L123.464 251.394M123.464 251.394C134.706 262.82 138.915 260.449 143.993 246.012M123.464 251.394C128.181 245.457 132.043 243.544 143.993 246.012M123.464 251.394C116.85 246.986 119.285 242.695 135.439 231.658C135.466 231.836 135.494 232.012 135.521 232.186M143.993 246.012C141.307 244.705 139.491 243.267 138.181 241.05M138.181 241.05C142.506 236.529 145.83 235.681 154.257 238.835M138.181 241.05C136.948 238.964 136.163 236.189 135.521 232.186M106.356 231.658L97.8023 224.482C97.6897 224.63 97.5772 224.774 97.4645 224.914M106.356 231.658C107.937 231.896 109.165 232.328 110.223 233.018M94.912 239.549L87.5378 229.864C92.8844 228.817 95.2119 227.711 97.4645 224.914M110.223 233.018L109.778 222.687C107.459 217.193 104.93 214.42 97.8023 210.128M97.4645 224.914C96.7529 223.753 96.3541 222.495 96.2297 220.893M97.4645 210.128C96.4965 215.142 96.0381 218.427 96.2297 220.893M85.827 215.511C86.678 218.271 88.0588 219.633 96.2297 220.893M142.282 217.305C136.642 204.811 128.854 206.727 126.885 226.276C126.661 226.334 126.442 226.395 126.227 226.458M142.282 217.305C148.539 216.438 151.487 215.516 154.257 211.922M142.282 217.305C138.435 224.529 136.607 228.194 135.521 232.186M135.521 232.186C141.931 230.967 144.455 229.497 145.703 224.482M126.227 226.458C128.962 229.221 131.801 228.669 138.86 224.482M126.227 226.458C123.076 227.391 120.932 228.923 118.933 231.658M118.933 231.658L123.464 208.334M123.464 208.334L116.621 199.363M123.464 208.334L125.174 192.186M116.621 199.363C115.702 198.002 115.069 196.823 114.694 195.775M116.621 199.363C111.177 204.26 106.92 203.902 97.8023 199.363C95.7167 192.639 99.3703 191.455 110.223 191.667M125.174 192.186C125.174 192.186 126.885 185.01 120.042 186.804C113.199 188.598 117.532 188.489 116.621 189.293M125.174 192.186C130.869 185.013 134.239 182.983 140.571 183.215M116.621 189.293C115.903 180.38 114.782 177.038 110.223 176.955C109.164 184.488 109.128 188.898 110.223 191.667M116.621 189.293C114.514 191.151 113.702 193.004 114.694 195.775M114.694 195.775C112.526 194.917 111.051 193.762 110.223 191.667M110.223 191.667C103.615 184.957 101.174 181.146 99.5131 174.245M140.571 183.215C141.957 187.687 135.439 193.977 138.86 193.981M140.571 183.215C148.613 181.603 153.11 183.015 161.1 190.392M161.1 190.392C153.541 193.242 150.008 195.45 146.078 200.654M161.1 190.392C163.535 193.937 164.42 196.081 163.698 200.654M161.1 190.392L167.943 179.627C146.815 169.768 141.749 170.896 143.993 185.01C141.784 195.976 142.438 199.086 146.078 200.654M145.703 201.157C145.829 200.987 145.953 200.819 146.078 200.654M126.885 190.392L130.307 174.245M130.307 174.245C125.459 173.478 124.069 171.771 125.174 165.274M130.307 174.245L133.489 160.895M125.174 165.274C128.293 150.068 116.621 140.155 114.91 138.361C113.199 136.567 114.694 152.714 114.694 152.714M125.174 165.274C121.982 158.682 119.831 155.665 114.694 152.714M125.174 165.274C118.742 168.774 114.574 168.588 106.356 165.274C103.329 160.384 104.71 157.635 114.694 152.714M114.694 152.714C108.897 143.241 106.281 141.318 102.935 143.744M133.489 160.895L138.86 138.361L142.852 127.596M133.489 160.895L143.74 155.221M166.233 136.567C166.039 136.757 165.85 136.944 165.663 137.13M157.181 147.332C156.221 149.217 155.907 150.881 155.968 152.714C156.051 152.788 156.134 152.861 156.216 152.933M157.181 147.332C170.441 150.217 170.924 152.172 171.365 156.299M157.181 147.332C158.516 144.711 161.1 141.661 165.663 137.13M165.663 137.13C150.836 134.769 144.695 138.799 143.74 155.221M143.74 155.221C140.819 163.801 144.703 165.628 161.1 163.48C163.577 160.799 162.454 158.455 156.216 152.933M143.74 155.221C147.468 147.792 150.181 147.135 156.216 152.933M137.15 143.744C134.572 142.81 132.824 141.907 132.017 140.064M132.017 134.773C140.744 114.081 137.523 111.664 125.174 118.625M125.174 118.625C130.101 122.377 131.775 125.373 132.017 132.978C131.326 136.357 131.348 138.534 132.017 140.064M125.174 118.625C113.602 131.801 116.579 131.812 132.017 140.064M125.174 118.625C121.286 113.023 119.071 110.905 114.91 113.242M142.852 127.596L156.216 120.419M142.852 127.596L146.844 116.831M156.216 120.419C165.758 131.14 169.799 131.091 174.786 120.419C168.584 116.43 164.86 115.526 161.453 116.831M156.216 120.419C151.965 113.146 151.543 109.822 161.1 107.86M156.216 120.419C158.069 118.729 159.72 117.494 161.453 116.831M161.1 107.86C163.5 108.27 163.738 110.015 161.453 116.831M161.1 107.86C175.965 104.707 181.667 104.298 173.076 113.242M161.453 116.831L173.076 113.242M173.076 113.242C183.962 111.077 186.443 111.737 186.762 115.037M146.844 116.831L150.836 106.066L154.942 95.3007M146.844 116.831L142.852 105.153M142.852 105.153L140.571 104.272M142.852 105.153C149.518 104.818 150.106 100.012 143.993 80.9472C136.83 82.0959 133.643 83.2307 138.86 91.7123M140.571 104.272L132.017 106.066C126.502 92.5506 127.7 89.1152 138.86 91.7123M140.571 104.272C143.793 96.7248 143.26 94.0114 138.86 91.7123M154.942 95.3007L161.1 79.153L165.663 71.9763M154.942 95.3007L176.497 98.889C182.6 98.9107 184.628 96.7866 185.051 88.1239C185.044 85.2881 184.056 84.5834 181.629 83.9239M154.942 95.3007C165.771 83.5646 171.919 80.7201 181.629 83.9239M183.34 84.5356C182.757 84.3121 182.187 84.108 181.629 83.9239M157.679 84.5356C153.542 81.8011 152.16 80.0332 154.942 75.5647M154.942 75.5647C146.678 73.3907 144.825 69.9299 149.125 57.6229C160.478 63.1688 161.846 67.0836 154.942 75.5647ZM166.233 64.7996L165.663 71.9763M166.233 64.7996C160.074 53.448 161.853 50.9013 173.076 52.2403M166.233 64.7996L173.076 52.2403M165.663 71.9763C176.853 56.3265 182.544 52.4117 191.894 52.2403C192.352 63.6294 186.512 67.9585 165.663 71.9763ZM173.076 52.2403C178.765 47.864 180.038 44.7735 178.208 37.8869C177.99 37.9649 177.776 38.0427 177.567 38.1204M173.076 52.2403C167.481 44.4676 168.76 41.3905 177.567 38.1204M177.567 38.1204C171.255 32.353 171.976 29.1537 183.34 23.5335M183.34 23.5335C185.683 33.0653 184.968 36.2479 178.208 36.0927M183.34 23.5335C181.544 12.1792 183.036 9.45576 190.183 10.9742M183.34 23.5335C189.467 22.8412 190.769 19.8479 190.183 10.9742M190.183 10.9742C189.73 3.4908 191.973 1.91691 198.737 2.0033C199.152 11.358 197.61 13.8392 190.183 10.9742ZM95.8834 448.754C93.9291 453.684 93.7498 456.901 95.8834 460.443M91.8147 475.329C91.8147 475.329 92.6701 463.108 90.9593 461.313C89.2485 459.519 95.8834 460.443 95.8834 460.443M99.5131 331.235C99.5131 331.235 96.0916 315.985 96.0916 314.191C96.0916 312.396 85.827 315.985 85.827 315.985C86.226 324.312 89.3046 327.614 99.5131 331.235ZM104.178 357.976C101.331 349.204 102.615 345.121 109.778 339.309M104.178 357.976C112.666 358.415 115.529 355.99 118.694 349.267M91.0251 393.135L89.2485 409.282L88.882 414.665M91.0251 393.135C99.7585 392.836 104.645 382.369 99.5131 378.781M84.1163 638.937C84.1163 638.937 86.0651 623.949 86.7604 612.024M84.1163 638.937C77.228 634.64 74.9693 631.282 72.141 624.584M84.1163 638.937V662.262V683.792M84.1163 638.937C80.1692 622.135 80.3871 611.415 84.16 590.494M86.7604 612.024C87.1934 604.598 87.1402 598.36 85.827 597.671C84.3505 596.897 84.0381 593.784 84.16 590.494M86.7604 612.024C91.111 609.759 92.3867 607.781 92.6701 603.054M72.141 624.584C69.0511 612.757 67.5607 609.713 65.1876 608.436M72.141 624.584C60.3907 620.469 58.7188 616.973 65.1876 608.436M53.5986 581.523C43.7222 578.725 43.8708 575.614 48.1904 568.964C54.9709 566.203 56.7431 567.987 53.5986 581.523ZM53.5986 581.523C45.5124 588.375 46.6064 591.113 59.0068 594.083M53.5986 581.523C64.7204 578.282 64.2613 582.517 59.0068 594.083M59.0068 594.083C44.4531 593.468 48.3175 597.532 65.1876 608.436M59.0068 594.083C64.8319 587.742 66.6558 589.236 65.1876 608.436M84.1163 685.586L82.4055 759.147M84.1163 685.586V683.792M84.1163 685.586C102.347 646.798 111.365 624.423 125.174 583.318C143.542 558.985 151.699 542.705 159.525 516.933M84.1163 685.586L105.855 664.541M82.4055 759.147L82.8128 741.205M82.4055 759.147C81.3324 773.215 80.7974 784.816 80.8317 795.031M84.1163 683.792L83.098 728.646M162.811 505.537C161.704 509.552 160.618 513.335 159.525 516.933M162.811 505.537H173.076M162.811 505.537C164.93 500.428 166.569 496.076 167.943 491.659M123.464 594.083L134.854 584.215M146.244 574.347C152.533 560.191 156.159 557.225 162.811 559.993C161.434 570.007 156.847 572.32 146.244 574.347ZM146.244 574.347C148.747 581.952 146.731 584.369 134.854 584.215M146.244 574.347C140.73 570.469 138.55 574.903 134.854 584.215M106.356 631.76L105.036 622.068M102.69 604.848C95.753 600.4 97.1322 598.108 101.224 594.083C105.885 595.814 106.313 598.111 102.69 604.848ZM102.69 604.848C97.4667 608.907 96.3487 611.153 104.073 615.001M102.69 604.848C108.119 605.583 108.23 607.929 104.073 615.001M104.073 615.001L104.157 615.613C97.2723 618.83 96.2237 620.363 105.036 622.068M104.073 615.001C111.036 615.4 110.195 617.325 105.036 622.068M159.525 516.933L149.125 500.785M149.125 500.785C143.36 482.353 139.051 484.542 130.307 500.785M149.125 500.785C141.588 518.327 137.474 517.828 130.307 500.785M149.125 500.785C140.96 508.323 136.753 509.058 130.307 500.785M174.786 505.537H173.931M173.076 505.537C174.786 488.226 209.001 488.226 202.158 497.197C199.962 500.076 199 502.955 198.592 505.537M173.076 505.537H173.931M173.931 505.537C174.932 516.167 193.605 515.139 197.026 515.139C199.35 515.139 197.728 511.002 198.592 505.537M173.931 505.537C177.345 502.577 181.316 501.897 198.592 505.537M167.943 491.659L161.1 482.844M167.943 491.659C168.994 488.282 169.889 484.868 170.725 481.049M161.1 482.844C161.838 450.215 157.636 447.864 143.993 464.902M161.1 482.844C154.568 485.875 150.795 485.861 143.993 484.638C137.156 477.793 143.993 472.078 149.125 472.078C154.257 472.078 143.094 465.925 143.993 464.902M143.993 464.902C137.182 463.949 134.403 464.564 132.017 468.49M170.725 481.049C171.535 477.353 172.289 473.277 173.076 468.49C174.026 465.663 174.909 462.989 175.734 460.443M170.725 481.049C174.949 477.509 177.335 476.623 181.629 477.461M181.629 477.461C188.24 457.97 205.589 454.296 203.869 468.49C203.684 470.015 203.463 471.399 203.196 472.646M181.629 477.461C195.585 483.909 200.975 483.008 203.196 472.646M190.183 481.049C191.07 468.307 193.942 466.574 203.196 472.646M202.158 475.667C209.349 476.072 211.38 478.25 212.423 484.638M175.734 460.443L173.931 456.881M175.734 460.443C176.918 456.787 177.98 453.393 178.943 450.187M170.725 450.548C172.469 429.457 163.103 423.271 155.968 434.401M170.725 450.548C166.96 450.55 163.761 450.44 161.1 450.187M170.725 450.548L173.931 456.881M170.725 450.548C165.227 440.17 161.974 436.957 155.968 434.401M155.968 434.401C148.025 444.804 148.856 449.019 161.1 450.187M155.968 434.401C150.927 429.703 148.278 428.69 143.993 430.812M161.1 450.187C160.261 453.515 161.076 455.224 173.931 456.881M178.943 450.187L187.489 444.123L193.605 439.783M178.943 450.187C181.49 441.697 183.338 434.515 184.892 427.224M193.605 439.783C188.393 430.985 190.563 426.613 205.58 420.047C210.961 422.205 214.294 424.284 215.696 427.224M193.605 439.783C193.604 439.998 193.605 440.209 193.607 440.416M193.607 440.416C193.734 453.585 198.272 453.485 214.134 439.783C216.555 434.063 217.116 430.202 215.696 427.224M193.607 440.416C193.298 434.919 214.134 430.812 215.696 427.224M184.892 427.224L178.49 420.35M184.892 427.224C185.759 423.154 186.535 419.049 187.29 414.665M178.208 420.047C159.274 425.421 155.924 423.316 164.522 409.282C164.572 409.19 164.623 409.099 164.673 409.008M178.208 420.047C176.952 393.596 173.709 392.632 164.673 409.008M178.208 420.047L178.49 420.35M164.673 409.008L178.49 420.35M164.673 409.008C154.684 401.996 151.273 401.916 147.414 405.694M187.29 414.665C187.686 412.362 188.077 409.981 188.472 407.488L189.196 402.932M187.29 414.665L195.315 411.076M195.315 411.076C212.116 416.979 216.52 415.306 215.844 403.9M195.315 411.076C201.889 387.156 206.347 386.198 214.766 402.105M195.315 411.076C200.495 404.998 207.291 409.008 214.766 402.105M215.696 403.9C215.38 403.28 215.07 402.681 214.766 402.105M189.196 402.932L180.238 391.739M189.196 402.932L191.894 385.958M180.238 391.739L179.919 391.34C162.039 402.241 160.302 397.803 164.522 380.575M180.238 391.739C184.851 369.236 162.811 364.428 162.811 369.81C162.811 375.193 164.522 380.575 164.522 380.575M180.238 391.739C174.91 380.59 171.472 378.071 164.522 380.575M164.522 380.575C155.545 378.484 152.898 378.852 150.836 382.369M191.894 385.958L193.605 375.193L194.208 368.016M191.894 385.958L200.161 379.022M214.766 365.268C220.628 379.549 218.924 383.648 206.322 380.722C204.5 380.299 202.449 379.729 200.161 379.022M214.766 365.268C210.417 355.961 207.217 358.998 200.161 379.022M214.766 365.268C210.421 374.8 207.037 377.244 200.161 379.022M198.737 314.191C189.066 296.277 191.308 294.565 199.98 296.589M198.737 314.191C207.448 298.085 207.11 294.88 200.145 296.249M198.737 314.191L198.677 314.908M194.208 368.016L186.762 360.839M194.208 368.016L195.418 353.641M186.762 360.839C186.685 342.417 183.701 338.461 173.076 342.897C175.942 359.841 178.863 364.055 186.762 360.839ZM196.171 344.692L189.196 339.309M196.171 344.692L195.418 353.641M196.171 344.692L197.076 333.927M189.196 339.309C189.39 323.528 187.026 318.682 180.238 314.191C176.68 335.688 178.794 340.926 189.196 339.309ZM195.418 353.641C203.052 334.342 207.298 326.935 214.766 324.956C215.84 342.993 205.58 341.103 195.418 353.641ZM197.076 333.927L210.712 317.779M197.076 333.927L197.378 330.338M210.712 317.779C208.401 306.728 209.074 301.87 214.766 296.249C215.258 314.356 214.416 319.127 210.712 317.779ZM201.223 278.988C189.178 271.73 191.346 269.161 202.158 265.748C208.185 269.219 208.738 271.917 201.223 278.988ZM201.223 278.988C190.357 283.622 188.973 287.236 199.98 296.589M201.223 278.988C208.173 276.487 207.794 280.469 200.145 296.249M199.98 296.589C200.036 296.475 200.091 296.362 200.145 296.249M198.677 314.908C190.648 315.343 189.381 317.989 197.378 330.338M198.677 314.908C203.657 313.78 203.203 317.377 197.378 330.338M122.608 653.291C119.745 643.494 123.425 641.157 138.86 642.526C136.15 652.329 133.046 655.383 122.608 653.291ZM122.608 653.291C116.638 644.842 114.498 644.66 114.482 658.673M122.608 653.291C131.092 658.103 131.466 659.782 114.482 658.673M114.482 658.673C108.149 650.614 106.816 653.226 106.356 664.056L105.855 664.541M114.482 658.673C120.037 666.041 116.817 666.57 105.855 664.541M84.1163 717.881C85.5751 709.182 87.7331 709.008 92.6701 712.499C96.6195 711.836 94.6689 715.236 83.098 728.646M83.098 728.646L82.8128 741.205M82.8128 741.205C80.873 739.121 79.03 737.077 77.2733 735.061M44.0384 679.271C29.9087 675.331 28.327 668.334 36.2151 658.673C47.4715 666.13 49.4921 670.617 44.0384 679.271ZM44.0384 679.271C35.2157 683.014 35.9562 688.278 51.553 696.351M44.0384 679.271C52.8685 677.901 53.5561 682.947 51.553 696.351M51.553 696.351C42.8294 700.082 41.6411 702.99 55.6703 704.354M51.553 696.351C56.5487 691.951 58.0554 692.358 55.6703 704.354M55.6703 704.354C41.7965 703.915 42.2719 707.278 62.7227 716.087M55.6703 704.354C62.1926 701.752 63.1258 705.486 62.7227 716.087M62.7227 716.087C66.4685 711.304 68.0241 715.256 70.4302 726.784M62.7227 716.087C57.6689 717.522 54.4886 718.945 53.818 720.361M70.4302 726.784C71.1649 727.725 71.916 728.667 72.6847 729.613C74.148 731.413 75.6749 733.226 77.2733 735.061M70.4302 726.784C68.7968 726.513 67.2937 726.241 65.9162 725.97M53.818 720.361C53.6427 720.731 53.6389 721.1 53.818 721.469C53.8867 721.611 53.9824 721.753 54.1056 721.894M53.818 720.361C50.5133 713.516 48.9442 713.931 46.4796 719.672M80.8317 795.031C85.4759 786.592 89.5451 779.014 93.3319 771.707M80.8317 795.031C80.8885 811.949 82.5067 825.068 85.827 839.304M114.586 727.33C110.651 718.893 113.683 712.268 123.464 707.116C126.731 720.141 128.711 727.557 114.586 727.33ZM114.586 727.33C102.935 726.784 109.755 738.044 107.444 743M114.586 727.33C122.395 732.446 123.549 735.635 108.421 742.558M107.444 743C107.777 742.851 108.103 742.703 108.421 742.558M107.444 743C116.186 745.804 114.346 749.932 101.457 755.559M108.421 742.558C98.8305 741.013 97.4054 743.961 101.457 755.559M101.457 755.559C92.6836 751.851 90.3455 757.641 93.3319 771.707M101.457 755.559C106.098 765.317 104.409 768.884 93.3319 771.707M85.827 839.304C86.8155 843.542 87.9547 847.879 89.2485 852.445C89.8568 863.581 90.5553 872.902 91.481 881.152M85.827 839.304C84.1969 837.704 82.5215 835.956 80.8317 834.114M53.3227 799.276C53.3227 799.276 33.5126 785.385 41.3474 778.883C48.8684 778.145 53.3227 799.276 53.3227 799.276ZM53.3227 799.276C38.6662 799.299 39.3949 805.248 63.3908 812.973M53.3227 799.276C61.846 796.451 62.961 801.388 63.3908 812.973M63.3908 812.973C70.4302 812.973 68.8523 820.034 71.8865 823.738M63.3908 812.973C51.9085 819.979 54.9122 822.12 71.8865 823.738M71.8865 823.738C57.6397 826.475 47.7721 829.054 77.2733 830.127M71.8865 823.738L77.2733 830.127M77.2733 830.127C78.4594 831.49 79.6491 832.825 80.8317 834.114M91.481 881.152C93.5863 899.915 108.067 931.389 102.935 929.594C97.8023 927.8 96.3002 932.584 93.3319 927.8M91.481 881.152L101.224 864.918M128.596 819.31C125.925 807.247 128.921 804.106 138.86 802.208C137.928 814.179 135.586 817.76 128.596 819.31ZM128.596 819.31C118.516 813.021 116.094 815.555 119.478 834.503M128.596 819.31C133.576 827.25 130.373 830.293 119.478 834.503M119.478 834.503C113.724 824.573 112.076 827.338 111.94 847.062M119.478 834.503C122.209 840.619 119.928 843.234 111.94 847.062M111.94 847.062C106.591 833.662 105.727 834.975 108.067 853.516M111.94 847.062C114.844 852.305 113.305 853.293 108.067 853.516M108.067 853.516L101.224 864.918M108.067 853.516C105.639 845.271 103.271 844.747 97.8023 848.853C98.1479 861.511 99.0809 863.844 101.224 864.918M120.612 286.212C122.334 302.535 128.041 299.336 141.141 280.829M120.612 286.212C125.329 280.274 129.192 278.361 141.141 280.829M120.612 286.212C113.998 281.803 128.596 267.539 132.67 267.003C136.744 266.467 139.893 285.844 141.141 280.829M141.141 280.829C143.739 281.754 142.282 292.657 147.414 294.455M88.882 414.665C72.7565 399.143 65.6677 391.465 78.984 389.546M88.882 414.665C85.271 394.027 83.1707 385.656 78.984 389.546M78.984 389.546C70.7558 384.184 69.9783 379.3 73.8517 368.016M78.984 389.546C81.2466 374.597 79.9784 370.102 73.8517 368.016M73.8517 368.016C66.9561 361.422 67.2339 354.953 73.8517 339.309C80.4609 359.625 80.86 366.463 73.8517 368.016ZM62.3853 553.64C56.1463 550.897 55.3082 547.726 60.1657 543.846C64.3884 544.182 64.8509 546.319 62.7311 552.637M62.3853 553.64C62.5072 553.295 62.6225 552.96 62.7311 552.637M62.3853 553.64C67.898 551.263 69.1793 554.252 67.353 561.787M62.7311 552.637C56.8489 557.692 57.7987 565.063 67.353 561.787M67.353 561.787C69.7655 560.074 77.6209 542.3 72.141 566.297M72.141 566.297C62.7446 568.983 61.4543 568.094 67.0087 561.787M83.781 638.727C78.6764 646.712 77.9161 651.781 79.8826 661.753M77.2733 735.061C76.1879 747.633 75.4858 758.405 75.237 768.42M77.2733 735.061L79.8826 661.753M80.8317 834.114C83.9635 877.155 86.803 895.979 93.3319 922.418M80.8317 834.114C77.4393 814.936 75.6802 799.855 75.2448 784.262M134.854 565.373V556.403M132.017 536.666C138.208 538.666 139.209 540.694 134.854 546.567V547.434M130.307 536.666C128.156 545.528 129.918 546.977 134.854 547.434M134.854 547.434C128.49 551.163 126.561 553.196 134.854 556.403M134.854 547.434C140.149 547.241 139.15 549.901 134.854 556.403M54.1056 721.894C46.7404 722.583 44.9273 722.148 46.4796 719.672M54.1056 721.894C57.0249 730.629 54.0378 732.105 41.7881 729.613M54.1056 721.894C55.2927 723.257 59.0382 724.615 65.9162 725.97M46.4796 719.672C43.5565 713.926 41.585 711.883 39.6366 713.501M46.4796 719.672C45.2371 721.151 43.8966 721.72 40.6266 720.994M36.2151 719.672C37.4577 716.468 38.5435 714.408 39.6366 713.501M36.2151 719.672C37.9983 720.295 39.4396 720.73 40.6266 720.994M36.2151 719.672C35.4447 719.935 34.7256 720.165 34.0554 720.361M39.6366 713.501C35.1341 709.854 32.1502 709.967 25.9506 714.289C25.493 720.794 27.287 722.335 34.0554 720.361M40.6266 720.994L41.3474 728.643C32.0754 728.615 30.747 726.666 34.0554 720.361M65.9162 725.97C65.7282 733.496 61.9697 733.602 51.553 729.613M75.2448 784.262C69.2405 783.568 66.6189 781.278 63.3908 773.497C66.8387 768.191 69.2283 766.503 75.237 768.42M75.2448 784.262C75.1005 779.094 75.1017 773.869 75.237 768.42M85.827 888.325C77.3824 885.203 74.6685 881.749 73.8517 872.177C73.8942 871.342 74.8875 871.078 84.1163 872.177M79.8826 661.753C75.1314 661.242 73.2196 659.435 72.141 651.493M78.984 513.345C72.0884 501.514 72.141 502.58 68.7195 502.58C65.298 502.58 65.2918 507.962 65.2918 507.962C67.2911 514.18 70.3798 515.253 78.984 513.345Z" stroke="#DAE0E2" stroke-width="2.5" stroke-linecap="round"/>
</svg>
