<svg width="342" height="96" viewBox="0 0 342 96" fill="none" xmlns="http://www.w3.org/2000/svg">
<path fill-rule="evenodd" clip-rule="evenodd" d="M304.794 2.46183C300.115 3.67409 295.325 4.91521 290.681 5.09415C286.301 5.2629 281.882 4.6239 277.529 3.99433C271.31 3.09506 265.225 2.21502 259.576 3.73573C249.538 6.4381 241.163 12.3487 240.643 18.565C240.358 21.9766 244.577 24.5279 248.896 27.1399C252.241 29.1624 255.646 31.2212 257.066 33.744C257.51 34.5329 257.707 35.3752 257.738 36.2504C255.044 36.721 252.251 37.4445 249.418 38.1786C244.739 39.3909 239.949 40.632 235.304 40.8109C230.925 40.9797 226.506 40.3407 222.152 39.7111C218.148 39.132 214.199 38.5609 210.386 38.6337C209.094 37.2915 207.285 35.9876 205.45 34.6651C202.542 32.5689 199.569 30.4261 198.488 28.01C197.306 25.3701 198.224 22.326 199.119 19.3618C200.447 14.9606 201.722 10.7355 195.989 8.27087C190.179 5.77295 183.085 7.61088 175.715 9.52043C171.036 10.7327 166.246 11.9738 161.602 12.1527C157.222 12.3215 152.803 11.6825 148.45 11.0529C142.231 10.1537 136.145 9.27362 130.497 10.7943C120.459 13.4967 112.084 19.4073 111.564 25.6236C111.279 29.0352 115.498 31.5865 119.817 34.1985C123.162 36.221 126.567 38.2798 127.987 40.8026C128.568 41.835 128.726 42.959 128.642 44.1284C126.141 44.5975 123.559 45.2663 120.942 45.9443C116.263 47.1565 111.473 48.3976 106.829 48.5766C102.449 48.7453 98.0306 48.1063 93.677 47.4768C91.3222 47.1362 88.9864 46.7984 86.6862 46.5927C85.8832 44.1017 86.7292 41.2983 87.5548 38.563C88.883 34.1618 90.1582 29.9367 84.4251 27.472C78.6147 24.9741 71.5209 26.8121 64.1507 28.7216C59.4717 29.9339 54.6814 31.175 50.0374 31.3539C45.6577 31.5227 41.2389 30.8837 36.8853 30.2541C30.6667 29.3548 24.5812 28.4748 18.9325 29.9955C8.89459 32.6979 0.519943 38.6084 0 44.8248C0.104997 46.2485 0.103358 48.3658 0.101454 50.8239C0.0956796 58.2808 0.0874765 68.8742 3.04662 72.7549C5.61547 76.3931 7.32738 76.4432 10.2038 76.5273C12.2226 76.5863 14.8151 76.6621 18.6802 78.007C24.4335 80.009 30.4623 77.7446 36.7726 75.3744C41.0634 73.7627 45.4844 72.1022 50.0374 71.7008C53.9727 71.3539 57.8744 71.9284 61.746 72.4985L61.7461 72.4985C64.2852 72.8724 66.8114 73.2444 69.3256 73.3532C71.0042 74.549 72.4198 75.8151 73.2143 77.2264C74.5904 79.671 73.5945 82.6294 72.6326 85.4866C71.2797 89.5053 69.9943 93.3236 75.4718 95.2297C81.2252 97.2317 87.254 94.9672 93.5643 92.597C97.8551 90.9854 102.276 89.3248 106.829 88.9235C110.764 88.5766 114.666 89.1511 118.538 89.7212C122.974 90.3744 127.371 91.0219 131.734 90.2702C141.887 88.5209 154.474 85.9997 157.137 80.2555C158.705 76.8753 154.755 74.0279 150.677 71.0889C147.769 68.9927 144.797 66.8499 143.715 64.4338C142.805 62.4 143.141 60.1263 143.752 57.8341C145.263 57.3276 146.792 56.7536 148.336 56.1733L148.337 56.1732C152.628 54.5615 157.049 52.901 161.602 52.4996C165.537 52.1527 169.439 52.7273 173.31 53.2973C177.336 53.8901 181.329 54.4781 185.294 54.0203C185.283 54.1074 185.274 54.1946 185.267 54.2818C184.982 57.6934 189.201 60.2447 193.52 62.8567C196.865 64.8792 200.269 66.938 201.69 69.4608C203.066 71.9053 202.07 74.8638 201.108 77.721C199.755 81.7397 198.47 85.558 203.947 87.464C209.701 89.466 215.729 87.2016 222.04 84.8314C226.331 83.2197 230.751 81.5592 235.304 81.1578C239.24 80.8109 243.142 81.3855 247.013 81.9555C251.45 82.6088 255.847 83.2563 260.21 82.5046C270.362 80.7553 282.949 78.2341 285.613 72.4899C287.18 69.1096 283.23 66.2623 279.153 63.3233C276.245 61.2271 273.272 59.0843 272.19 56.6682C271.41 54.9259 271.545 53.0076 271.984 51.0525C273.771 50.4836 275.582 49.8035 277.416 49.1146C281.707 47.5029 286.128 45.8424 290.681 45.441C294.616 45.0941 298.518 45.6687 302.389 46.2387C306.826 46.892 311.223 47.5395 315.586 46.7878C325.739 45.0385 339.336 42.2441 342 36.5V14C340.995 6.88456 337.224 5.58689 331.2 3.51452C329.361 2.88184 327.312 2.17695 325.068 1.21227C319.258 -1.28564 312.164 0.55229 304.794 2.46183Z" fill="#C6CAD8"/>
</svg>
