<svg width="1128" height="329" viewBox="0 0 1128 329" fill="none" xmlns="http://www.w3.org/2000/svg">
<path fill-rule="evenodd" clip-rule="evenodd" d="M1014.58 8.43773C1000.06 12.5926 985.193 16.8465 970.781 17.4598C957.189 18.0382 943.475 15.848 929.964 13.6902C910.665 10.6081 891.779 7.5918 874.249 12.8039C843.096 22.0661 817.106 42.324 815.493 63.6301C814.607 75.323 827.701 84.0673 841.106 93.0197C851.485 99.9516 862.052 107.008 866.459 115.655C868.398 119.459 868.82 123.627 868.422 127.96C863.802 128.883 859.141 129.861 854.453 130.844C834.649 134.999 814.373 139.252 794.716 139.865C776.178 140.444 757.475 138.254 739.047 136.096C722.098 134.112 705.383 132.154 689.244 132.404C683.775 127.803 676.118 123.334 668.351 118.801L668.35 118.801C656.042 111.617 643.459 104.273 638.88 95.9932C633.878 86.946 637.766 76.5138 641.553 66.3553C647.175 51.272 652.572 36.7921 628.306 28.3457C603.712 19.7851 573.686 26.0839 542.49 32.628C522.686 36.7826 502.41 41.036 482.753 41.6492C464.215 42.2275 445.512 40.0376 427.084 37.88C400.763 34.7982 375.004 31.7822 351.095 36.9938C308.608 46.255 273.16 66.511 270.959 87.815C269.752 99.5067 287.61 108.25 305.892 117.202C320.049 124.133 334.46 131.189 340.471 139.835C342.931 143.372 343.601 147.224 343.246 151.231C332.657 152.839 321.73 155.131 310.655 157.455C290.85 161.609 270.574 165.862 250.917 166.476C232.38 167.054 213.676 164.864 195.249 162.707H195.249H195.249H195.249L194.313 162.597C194.228 162.335 194.147 162.073 194.07 161.809C191.432 152.761 193.482 142.328 195.479 132.168C198.444 117.083 201.291 102.602 188.493 94.1549C175.522 85.5935 159.687 91.8929 143.234 98.4377C132.79 102.593 122.096 106.846 111.729 107.46C101.952 108.038 92.0883 105.848 82.3698 103.69C68.4881 100.608 54.9032 97.5918 42.2937 102.804C19.886 112.066 1.16067 132.324 7.61217e-10 153.63C0.796988 167.816 0.483905 191.037 0.220358 210.584C0.105467 219.105 -1.03464e-05 226.928 7.61217e-10 233C6.05792 249.522 16.1605 254.533 31.1225 261.953C34.4196 263.589 37.9526 265.341 41.7304 267.359C54.5735 274.221 68.0317 266.46 82.1181 258.336L82.1194 258.335C85.8327 256.194 89.5897 254.027 93.3906 252.097C99.9618 255.986 105.466 260.103 108.636 264.661C114.461 273.039 110.245 283.178 106.174 292.969C100.448 306.742 95.0067 319.827 118.191 326.36C142.544 333.221 168.062 325.46 194.771 317.337C212.933 311.814 231.646 306.123 250.917 304.748C267.575 303.559 284.09 305.528 300.477 307.482H300.477C319.256 309.72 337.867 311.939 356.333 309.363C399.307 303.368 452.583 294.728 463.857 275.042C470.492 263.458 453.773 253.7 436.515 243.627C424.206 236.443 411.623 229.1 407.045 220.82C403.191 213.85 404.614 206.058 407.202 198.203C413.599 196.467 420.067 194.5 426.607 192.511C444.769 186.988 463.481 181.297 482.753 179.921C499.41 178.732 515.925 180.701 532.312 182.655C549.352 184.687 566.254 186.702 583.035 185.133C582.991 185.432 582.953 185.731 582.923 186.031C581.715 197.723 599.573 206.466 617.855 215.418C632.012 222.349 646.423 229.405 652.435 238.051C658.259 246.428 654.044 256.567 649.973 266.359C644.246 280.131 638.805 293.217 661.99 299.749C686.342 306.61 711.86 298.85 738.57 290.727C756.732 285.204 775.444 279.513 794.716 278.137C811.373 276.949 827.888 278.918 844.276 280.871C863.054 283.11 881.666 285.329 900.132 282.753C943.106 276.758 996.381 268.117 1007.66 248.432C1014.29 236.847 997.571 227.089 980.313 217.017C968.005 209.833 955.422 202.489 950.844 194.209C945.841 185.162 949.73 174.73 953.516 164.571C954.25 162.604 954.979 160.646 955.64 158.711C960.633 157.301 965.68 156.242 970.781 155.745C982.994 154.556 995.103 156.526 1007.12 158.479C1020.89 160.719 1034.53 162.938 1048.07 160.361C1079.58 154.366 1119.73 146.188 1128 126.5V30.5C1122.37 16.609 1115.79 15.2226 1104.55 12.8574C1097.61 11.3945 1088.88 9.55716 1077.5 4.15497C1059.47 -4.40643 1037.45 1.89294 1014.58 8.43773Z" fill="#C6CAD8"/>
</svg>
